# xmcd CD database file
# Copyright (C) 1993-1998 Ti Kan
#
# Track frame offsets:
#  150
#  9447
#  20585
#  33040
#  45877
#  61765
#  70785
#  80800
#  93952
#  105785
#
# Disc length: 1602 seconds
#
# Revision: 1
# Processed by: cddbd v1.4b41PL1 Copyright (c) Steve Scherf et al.
# Submitted via: KiC 2.1 - (C) 1996-1998 Alwin Hoogerdijk
#
DISCID=6306400a
DTITLE=Charley Pride - Top Hits! The Branson Sound
DYEAR=1900
DGENRE=
TTITLE0=Kiss An Angel Good Morning
TTITLE1=Missin' You
TTITLE2=More To Me
TTITLE3=I'll Be Leaving Alone
TTITLE4=The Power of Love
TTITLE5=Honky Tonk Blues
TTITLE6=Why Baby Why
TTITLE7=Ev'ry Heart Should Have One
TTITLE8=I Don't Think She's In Love Anymore
TTITLE9=Burgers and Fries
EXTD=
EXTT0=
EXTT1=
EXTT2=
EXTT3=
EXTT4=
EXTT5=
EXTT6=
EXTT7=
EXTT8=
EXTT9=
PLAYORDER=
